<svg id="bell_2_" data-name="bell (2)" xmlns="http://www.w3.org/2000/svg" width="23.235" height="25.347" viewBox="0 0 23.235 25.347">
  <path id="Trazado_78390" data-name="Trazado 78390" d="M359.425,26.7a1.056,1.056,0,0,1-1.056-1.056,11.019,11.019,0,0,0-3.248-7.842,1.056,1.056,0,0,1,1.493-1.493,13.115,13.115,0,0,1,3.867,9.335A1.056,1.056,0,0,1,359.425,26.7Zm0,0" transform="translate(-337.246 -15.203)" fill="#626a93"/>
  <path id="Trazado_78391" data-name="Trazado 78391" d="M1.056,26.7A1.056,1.056,0,0,1,0,25.64,13.115,13.115,0,0,1,3.866,16.3,1.056,1.056,0,0,1,5.36,17.8,11.017,11.017,0,0,0,2.112,25.64,1.056,1.056,0,0,1,1.056,26.7Zm0,0" transform="translate(0 -15.203)" fill="#626a93"/>
  <path id="Trazado_78392" data-name="Trazado 78392" d="M41.8,17.862a7.074,7.074,0,0,1-2.513-5.413V9.505A7.4,7.4,0,0,0,32.95,2.2V1.056a1.056,1.056,0,0,0-2.112,0V2.2A7.4,7.4,0,0,0,24.5,9.505V12.45a7.082,7.082,0,0,1-2.522,5.421,1.848,1.848,0,0,0,1.2,3.252H40.607a1.848,1.848,0,0,0,1.192-3.26Zm0,0" transform="translate(-20.276)" fill="#626a93"/>
  <path id="Trazado_78393" data-name="Trazado 78393" d="M160.169,451.168A3.967,3.967,0,0,0,164.05,448h-7.76A3.967,3.967,0,0,0,160.169,451.168Zm0,0" transform="translate(-148.552 -425.821)" fill="#626a93"/>
</svg>
