<svg xmlns="http://www.w3.org/2000/svg" width="24" height="24" viewBox="0 0 24 24">
  <path id="chat_1_" data-name="chat (1)" d="M11.946,24a11.851,11.851,0,0,1-5.36-1.245,3.574,3.574,0,0,0-1.6-.379A4.331,4.331,0,0,0,2.173,23.66,1.3,1.3,0,0,1,0,22.7V12.111A12.029,12.029,0,0,1,12,0,11.968,11.968,0,0,1,24,12.118,12.011,12.011,0,0,1,11.957,24h-.012Zm-4.2-3.564a9.282,9.282,0,0,0,4.2.97A9.462,9.462,0,0,0,21.4,12.093a9.405,9.405,0,1,0-18.81,0s0,8.165,0,8.165a6.229,6.229,0,0,1,2.388-.477A6.162,6.162,0,0,1,7.748,20.436Zm9.311-9.993a1.622,1.622,0,1,0,1.622,1.622A1.622,1.622,0,0,0,17.059,10.443Zm-5.124,0a1.622,1.622,0,1,0,1.622,1.622A1.622,1.622,0,0,0,11.935,10.443Zm-5.124,0a1.622,1.622,0,1,0,1.622,1.622A1.622,1.622,0,0,0,6.811,10.443Z" transform="translate(0 0)" fill="#fff"/>
</svg>
