<svg xmlns="http://www.w3.org/2000/svg" width="23.865" height="23.865" viewBox="0 0 23.865 23.865">
  <path id="Trazado_78376" data-name="Trazado 78376" d="M31.882,15a1.989,1.989,0,0,0-1.192.435l-9.944,7.955A1.989,1.989,0,0,0,20,24.944V36.876a1.989,1.989,0,0,0,1.989,1.989h5.966l.023-.833a3.977,3.977,0,0,1,7.955,0l-.023.833h5.966a1.989,1.989,0,0,0,1.989-1.989V24.944a1.989,1.989,0,0,0-.747-1.553l-9.944-7.955A1.989,1.989,0,0,0,31.882,15Z" transform="translate(-20 -15)" fill="#fff" fill-rule="evenodd"/>
</svg>
