<svg xmlns="http://www.w3.org/2000/svg" width="20.223" height="15.8" viewBox="0 0 20.223 15.8">
  <g id="streaming" transform="translate(-3.25 -5.25)">
    <path id="Trazado_78382" data-name="Trazado 78382" d="M17.392,19.693a.878.878,0,0,0,1.471.959,13.761,13.761,0,0,0,0-15,.878.878,0,0,0-1.471.959,12.005,12.005,0,0,1,0,13.086Z" transform="translate(2.385 0)" fill="#fff"/>
    <path id="Trazado_78383" data-name="Trazado 78383" d="M6.689,5.392a.878.878,0,0,1,.256,1.215,12.006,12.006,0,0,0,0,13.086.878.878,0,0,1-1.471.959,13.761,13.761,0,0,1,0-15,.878.878,0,0,1,1.215-.256Z" transform="translate(0 0)" fill="#fff"/>
    <path id="Trazado_78384" data-name="Trazado 78384" d="M8.735,8.415a.878.878,0,0,1,.2,1.225,4.976,4.976,0,0,0,0,5.795A.878.878,0,1,1,7.51,16.458a6.732,6.732,0,0,1,0-7.843.878.878,0,0,1,1.225-.2Z" transform="translate(0.511 0.511)" fill="#fff"/>
    <path id="Trazado_78385" data-name="Trazado 78385" d="M12.469,9.25a3.219,3.219,0,1,0,3.219,3.219A3.218,3.218,0,0,0,12.469,9.25Z" transform="translate(1.022 0.681)" fill="#fff"/>
    <path id="Trazado_78386" data-name="Trazado 78386" d="M15.415,15.434a.878.878,0,1,0,1.426,1.024,6.732,6.732,0,0,0,0-7.843A.878.878,0,0,0,15.415,9.64a4.976,4.976,0,0,1,0,5.795Z" transform="translate(2.044 0.511)" fill="#fff"/>
  </g>
</svg>
